<?xml version="1.0" encoding="UTF-8"?>


<svg id="SvgjsSvg1013" width="256" height="256" xmlns="http://www.w3.org/2000/svg" version="1.1" xmlns:xlink="http://www.w3.org/1999/xlink" xmlns:svgjs="http://svgjs.com/svgjs"><defs id="SvgjsDefs1014"></defs><g id="SvgjsG1015"><svg xmlns="http://www.w3.org/2000/svg" enable-background="new 0 0 512 512" viewBox="0 0 512 512" width="256" height="256"><path d="M192.818,435.827c1.789,0.328-2.548,0.105,74.545,0.173c5.522,0,10-4.478,10-10v-81.818
			c0-25.564-20.798-46.363-46.363-46.363s-46.364,20.799-46.364,46.363v8.182h-16.364v-12.727c0-18.046-14.681-32.728-32.727-32.728
			c-8.823,0-16.835,3.516-22.727,9.212c-5.892-5.696-13.905-9.212-22.728-9.212c-18.046,0-32.727,14.682-32.727,32.728v12.727H41
			v-89.091c16.091,0,348.028,0,380,0V276c0,5.522,4.478,10,10,10s10-4.478,10-10v-22.728c-0.02-165.785,0.071-155.035-0.171-156.349
			c-0.172-0.945,1.414,4.278-23.012-73.907c-1.305-4.175-5.171-7.017-9.545-7.017s-8.24,2.843-9.545,7.018
			c-24.34,77.915-22.84,72.963-23.011,73.907c-0.252,1.37-0.151-8.306-0.171,146.348h-11.939
			C360.87,175.938,307.739,121.37,241,116.375v-10.697c9.98-2.081,18.145-8.371,22.735-17.226c2.542-4.903,0.628-10.938-4.275-13.48
			c-4.9-2.541-10.938-0.628-13.48,4.275c-1.65,3.183-4.447,5.514-7.874,6.563c-6.975,2.132-14.386-1.804-16.52-8.778
			c-1.488-4.86-0.022-10.218,3.733-13.65c4.077-3.726,4.361-10.051,0.635-14.128c-3.726-4.076-10.05-4.361-14.128-0.635
			c-9.423,8.612-13.099,22.063-9.364,34.266c2.954,9.653,9.938,16.976,18.539,20.722v12.769
			c-66.739,4.995-119.87,59.563-122.606,126.897H86.455C86.435,88.57,86.532,98.274,86.284,96.924
			c-0.169-0.931,1.367,4.127-23.011-73.907C61.968,18.843,58.102,16,53.728,16s-8.24,2.842-9.545,7.017
			c-24.341,77.915-22.839,72.956-23.012,73.907C20.848,98.68,21.058,81.721,21,426c0,5.522,4.477,10,10,10h160
			C191.622,436,192.228,435.936,192.818,435.827z M204.636,344.182c0-14.537,11.827-26.363,26.364-26.363
			c14.537,0,26.363,11.826,26.363,26.363V416h-52.727V344.182z M135.545,326.909c7.018,0,12.727,5.71,12.727,12.728v12.727h-25.454
			v-12.727C122.818,332.619,128.528,326.909,135.545,326.909z M77.364,339.637c0-7.018,5.709-12.728,12.727-12.728
			c7.018,0,12.728,5.71,12.728,12.728v12.727H77.364V339.637z M66.455,108.728V126H41v-17.272H66.455z M395.546,108.728H421V126
			h-25.454V108.728z M408.272,59.526l9.126,29.201h-18.251L408.272,59.526z M395.546,146H421v97.272h-25.454V146z M231,136
			c60.329,0,109.737,47.638,112.594,107.272H118.407C121.262,183.638,170.671,136,231,136z M41,243.272V146h25.455v97.272H41z
			 M53.728,59.526l9.125,29.201h-18.25L53.728,59.526z M41,372.363c54.335,0,88.427,0,143.636,0V416H41V372.363z" fill="#00B489" class="color000 svgShape"></path><path d="M249.889 161.479c-5.506-.394-10.291 3.759-10.682 9.268-.39 5.509 3.759 10.292 9.268 10.682.074.005 7.702.729 15.843 5.402 11.188 6.421 18.067 17.083 20.45 31.687.8 4.906 5.043 8.392 9.857 8.392 6.18 0 10.874-5.529 9.881-11.611C297.986 175.327 265.929 162.616 249.889 161.479zM126.455 117.818c13.033 0 23.636-10.604 23.636-23.637s-10.603-23.636-23.636-23.636-23.636 10.603-23.636 23.636S113.421 117.818 126.455 117.818zM126.455 90.545c2.005 0 3.636 1.631 3.636 3.636 0 2.005-1.631 3.637-3.636 3.637s-3.636-1.631-3.636-3.637C122.818 92.177 124.45 90.545 126.455 90.545zM336 90.545c18.297 0 33.182-14.885 33.182-33.182 0-18.297-14.885-33.182-33.182-33.182s-33.182 14.885-33.182 33.182C302.818 75.66 317.703 90.545 336 90.545zM336 44.182c7.269 0 13.182 5.914 13.182 13.182S343.269 70.545 336 70.545s-13.182-5.913-13.182-13.182S328.731 44.182 336 44.182zM391 296c-55.141 0-100 44.859-100 100 0 32.677 15.755 61.74 40.065 80H111c-5.523 0-10 4.478-10 10s4.477 10 10 10h280c55.141 0 100-44.859 100-100S446.141 296 391 296zM391 476c-44.112 0-80-35.888-80-80s35.888-80 80-80 80 35.888 80 80S435.112 476 391 476z" fill="#00B489" class="color000 svgShape"></path><path d="M431,396h-35.857l-37.071-37.071c-3.906-3.904-10.236-3.904-14.143,0c-3.905,3.905-3.905,10.237,0,14.143l40,40
			c1.876,1.875,4.419,2.929,7.071,2.929h40c5.522,0,10-4.478,10-10S436.522,396,431,396z" fill="#00B489" class="color000 svgShape"></path></svg></g></svg>