<?xml version="1.0" encoding="UTF-8"?>

<svg id="SvgjsSvg1043" width="256" height="256" xmlns="http://www.w3.org/2000/svg" version="1.1" xmlns:xlink="http://www.w3.org/1999/xlink" xmlns:svgjs="http://svgjs.com/svgjs"><defs id="SvgjsDefs1044"></defs><g id="SvgjsG1045"><svg xmlns="http://www.w3.org/2000/svg" data-name="Layer 1" viewBox="0 0 64 64" width="256" height="256"><path d="M26.1 19.269c.868.693 1.827.936 2.14.543s-.135-1.274-1-1.967-1.827-.936-2.141-.543.137 1.274 1.001 1.967zM57.615 6.524l-.341-4.167a.5.5 0 0 0-.9-.251L53.927 5.5a.5.5 0 0 1-.54.189l-3.356-.933a.5.5 0 0 0-.5.817L51.6 7.86a.5.5 0 0 1 .054.6l-2.071 3.31a.5.5 0 0 0 .6.734l3.879-1.433a.5.5 0 0 1 .564.157l2.582 3.23a.5.5 0 0 0 .89-.32l-.063-3.9a.5.5 0 0 1 .356-.487l2.957-.889a.5.5 0 0 0-.01-.961l-3.358-.936a.5.5 0 0 1-.365-.441zM46.912 30.433c1.175.938 2.382 1.379 2.7.986s-.383-1.472-1.558-2.41-2.381-1.379-2.695-.986.379 1.477 1.553 2.41zM59 20a1 1 0 0 0-2 0v1a1 1 0 0 0 2 0zm-1 7a1 1 0 0 0 1-1v-1a1 1 0 0 0-2 0v1a1 1 0 0 0 1 1zm-2-5h-1a1 1 0 0 0 0 2h1a1 1 0 0 0 0-2zm5 0h-1a1 1 0 0 0 0 2h1a1 1 0 0 0 0-2zM6 54a1 1 0 0 0-1 1v1a1 1 0 0 0 2 0v-1a1 1 0 0 0-1-1zm-1 7a1 1 0 0 0 2 0v-1a1 1 0 0 0-2 0zm-1-4H3a1 1 0 0 0 0 2h1a1 1 0 0 0 0-2zm4 2h1a1 1 0 0 0 0-2H8a1 1 0 0 0 0 2z" fill="#00B489" class="color000 svgShape"></path><circle cx="12.024" cy="14" r="1" fill="#00B489" class="color000 svgShape"></circle><path d="M31.024 61.977A29.859 29.859 0 0 0 61 32.951a1 1 0 0 0-1.957-.321A22.618 22.618 0 0 1 55 40.264v-.287a1 1 0 0 0-.967-.993 8.132 8.132 0 0 0 .808-5.4 9.166 9.166 0 0 0-4.452-5.938 14.305 14.305 0 0 0-.955-.528l-5.449-2.755c0-.017.015-.033.015-.051v-2.473a4 4 0 0 0 2.717-2.408 2.993 2.993 0 1 1-2.649-5.292A3.985 3.985 0 1 0 42 21.835v2.475c0 .014.01.025.012.038l-5.476 2.768-.117.06A10.272 10.272 0 0 0 32 31.353v-7.376a.971.971 0 0 0-.2-.562 3.619 3.619 0 0 0 .2-1.159 7.978 7.978 0 0 0-2.878-6.146L26 13.508v-3.331a1.017 1.017 0 1 0-2 0v3.331l-3.122 2.6A7.98 7.98 0 0 0 18 22.257a3.617 3.617 0 0 0 .2 1.158.971.971 0 0 0-.2.562v14.91a22.863 22.863 0 0 1-3.976-12.91A23.151 23.151 0 0 1 30.371 3.958a1 1 0 0 0 .7-1.119A.977.977 0 0 0 30.049 2a30 30 0 0 0 .975 59.976ZM37.4 28.92l.036-.019 5.547-2.8 5.547 2.8c.284.144.56.3.825.456a7.193 7.193 0 0 1 3.524 4.625 5.9 5.9 0 0 1-.017 2.411 1.979 1.979 0 0 1-1.99 1.531l-10.972-.23a5.543 5.543 0 0 1-3.5-1.319c-2.743-2.328-2.195-5.796 1-7.455ZM33 40.977h20v1H33Zm-1 3h1v4.64c-.337-.06-.668-.137-1-.211ZM21 20.255a5.856 5.856 0 0 1 .036-.637 3.04 3.04 0 0 1 1.112-1.963l.011-.009L25 15.279l2.841 2.367a5.956 5.956 0 0 1 1.967 3.131.99.99 0 0 1-.981 1.2h-6.121A1.706 1.706 0 0 1 21 20.276v-.021Zm7 12.327v2.395h-6v-2.395a3 3 0 0 1 1.336-2.5L25 28.977l1.664 1.109A3 3 0 0 1 28 32.582ZM8.061 17.613a1.979 1.979 0 0 0-.037.364 2.011 2.011 0 1 0 .553-1.377A23.722 23.722 0 0 1 23.105 5.1l.322-.092A24.972 24.972 0 1 0 52.22 45.765a28.991 28.991 0 0 1-31.414 5.928C6.347 45.6 2.3 29.457 8.061 17.613Z" fill="#00B489" class="color000 svgShape"></path></svg></g></svg>